<svg width="35" height="35" viewBox="0 0 35 35" fill="none" xmlns="http://www.w3.org/2000/svg">
<g clip-path="url(#clip0_13_7)">
<path d="M19.6875 12.0312C19.6875 11.7412 19.5723 11.463 19.3671 11.2579C19.162 11.0527 18.8838 10.9375 18.5938 10.9375C18.3037 10.9375 18.0255 11.0527 17.8204 11.2579C17.6152 11.463 17.5 11.7412 17.5 12.0312V15.3125H14.2188C13.9287 15.3125 13.6505 15.4277 13.4454 15.6329C13.2402 15.838 13.125 16.1162 13.125 16.4062C13.125 16.6963 13.2402 16.9745 13.4454 17.1796C13.6505 17.3848 13.9287 17.5 14.2188 17.5H17.5V20.7812C17.5 21.0713 17.6152 21.3495 17.8204 21.5546C18.0255 21.7598 18.3037 21.875 18.5938 21.875C18.8838 21.875 19.162 21.7598 19.3671 21.5546C19.5723 21.3495 19.6875 21.0713 19.6875 20.7812V17.5H22.9688C23.2588 17.5 23.537 17.3848 23.7421 17.1796C23.9473 16.9745 24.0625 16.6963 24.0625 16.4062C24.0625 16.1162 23.9473 15.838 23.7421 15.6329C23.537 15.4277 23.2588 15.3125 22.9688 15.3125H19.6875V12.0312Z" fill="white"/>
<path d="M1.09375 2.1875C0.803669 2.1875 0.52547 2.30273 0.320352 2.50785C0.115234 2.71297 0 2.99117 0 3.28125C0 3.57133 0.115234 3.84953 0.320352 4.05465C0.52547 4.25977 0.803669 4.375 1.09375 4.375H3.52188L4.39906 7.89031L7.67594 25.3575C7.72286 25.6081 7.85587 25.8345 8.05199 25.9975C8.24811 26.1604 8.49501 26.2498 8.75 26.25H10.9375C9.77718 26.25 8.66438 26.7109 7.84391 27.5314C7.02344 28.3519 6.5625 29.4647 6.5625 30.625C6.5625 31.7853 7.02344 32.8981 7.84391 33.7186C8.66438 34.5391 9.77718 35 10.9375 35C12.0978 35 13.2106 34.5391 14.0311 33.7186C14.8516 32.8981 15.3125 31.7853 15.3125 30.625C15.3125 29.4647 14.8516 28.3519 14.0311 27.5314C13.2106 26.7109 12.0978 26.25 10.9375 26.25H26.25C25.0897 26.25 23.9769 26.7109 23.1564 27.5314C22.3359 28.3519 21.875 29.4647 21.875 30.625C21.875 31.7853 22.3359 32.8981 23.1564 33.7186C23.9769 34.5391 25.0897 35 26.25 35C27.4103 35 28.5231 34.5391 29.3436 33.7186C30.1641 32.8981 30.625 31.7853 30.625 30.625C30.625 29.4647 30.1641 28.3519 29.3436 27.5314C28.5231 26.7109 27.4103 26.25 26.25 26.25H28.4375C28.6925 26.2498 28.9394 26.1604 29.1355 25.9975C29.3316 25.8345 29.4646 25.6081 29.5116 25.3575L32.7928 7.8575C32.8224 7.69964 32.8168 7.53722 32.7765 7.38176C32.7362 7.2263 32.6621 7.08162 32.5596 6.95801C32.4571 6.83439 32.3286 6.73487 32.1833 6.66652C32.0379 6.59816 31.8793 6.56265 31.7188 6.5625H6.32188L5.43594 3.01656C5.3769 2.77984 5.2404 2.56965 5.04816 2.41943C4.85592 2.2692 4.61897 2.18757 4.375 2.1875H1.09375ZM9.65781 24.0625L6.78562 8.75H30.4019L27.5297 24.0625H9.65781V24.0625ZM13.125 30.625C13.125 31.2052 12.8945 31.7616 12.4843 32.1718C12.0741 32.582 11.5177 32.8125 10.9375 32.8125C10.3573 32.8125 9.80094 32.582 9.3907 32.1718C8.98047 31.7616 8.75 31.2052 8.75 30.625C8.75 30.0448 8.98047 29.4884 9.3907 29.0782C9.80094 28.668 10.3573 28.4375 10.9375 28.4375C11.5177 28.4375 12.0741 28.668 12.4843 29.0782C12.8945 29.4884 13.125 30.0448 13.125 30.625V30.625ZM28.4375 30.625C28.4375 31.2052 28.207 31.7616 27.7968 32.1718C27.3866 32.582 26.8302 32.8125 26.25 32.8125C25.6698 32.8125 25.1134 32.582 24.7032 32.1718C24.293 31.7616 24.0625 31.2052 24.0625 30.625C24.0625 30.0448 24.293 29.4884 24.7032 29.0782C25.1134 28.668 25.6698 28.4375 26.25 28.4375C26.8302 28.4375 27.3866 28.668 27.7968 29.0782C28.207 29.4884 28.4375 30.0448 28.4375 30.625V30.625Z" fill="white"/>
</g>
<defs>
<clipPath id="clip0_13_7">
<rect width="35" height="35" fill="white"/>
</clipPath>
</defs>
</svg>
