<svg width="35" height="35" viewBox="0 0 35 35" fill="none" xmlns="http://www.w3.org/2000/svg">
<path d="M27.7083 16.0417H10.4125L15.7063 9.68332C15.9538 9.3855 16.0729 9.00155 16.0373 8.61593C16.0018 8.23031 15.8145 7.8746 15.5167 7.62707C15.2189 7.37953 14.8349 7.26044 14.4493 7.296C14.0637 7.33155 13.708 7.51884 13.4604 7.81665L6.16876 16.5667C6.1197 16.6362 6.07583 16.7094 6.03751 16.7854C6.03751 16.8583 6.03751 16.9021 5.93543 16.975C5.86933 17.1422 5.83472 17.3202 5.83334 17.5C5.83472 17.6798 5.86933 17.8578 5.93543 18.025C5.93543 18.0979 5.93543 18.1417 6.03751 18.2146C6.07583 18.2906 6.1197 18.3637 6.16876 18.4333L13.4604 27.1833C13.5975 27.3479 13.7692 27.4803 13.9633 27.5711C14.1574 27.6618 14.3691 27.7087 14.5833 27.7083C14.9241 27.709 15.2543 27.5903 15.5167 27.3729C15.6643 27.2505 15.7864 27.1001 15.8759 26.9304C15.9654 26.7608 16.0205 26.5751 16.0381 26.3841C16.0557 26.1931 16.0355 26.0005 15.9785 25.8173C15.9216 25.6342 15.8291 25.464 15.7063 25.3167L10.4125 18.9583H27.7083C28.0951 18.9583 28.4661 18.8047 28.7395 18.5312C29.013 18.2577 29.1667 17.8868 29.1667 17.5C29.1667 17.1132 29.013 16.7423 28.7395 16.4688C28.4661 16.1953 28.0951 16.0417 27.7083 16.0417Z" fill="#00BFA6"/>
</svg>
