<svg width="35" height="35" viewBox="0 0 35 35" fill="none" xmlns="http://www.w3.org/2000/svg">
<path d="M4.375 7.65625C4.08492 7.65625 3.80672 7.77148 3.6016 7.9766C3.39648 8.18172 3.28125 8.45992 3.28125 8.75C3.28125 9.04008 3.39648 9.31828 3.6016 9.5234C3.80672 9.72852 4.08492 9.84375 4.375 9.84375H6.80312L9.67312 21.3281C9.91703 22.3016 10.7888 22.9688 11.7917 22.9688H25.4308C26.4184 22.9688 27.2573 22.3125 27.5166 21.3609L30.3516 10.9375H28.0613L25.4297 20.7813H11.7906L8.92172 9.29688C8.80321 8.82572 8.53002 8.40796 8.1459 8.1105C7.76178 7.81304 7.28895 7.65308 6.80312 7.65625H4.375ZM24.0625 22.9688C22.2633 22.9688 20.7812 24.4508 20.7812 26.25C20.7812 28.0492 22.2633 29.5313 24.0625 29.5313C25.8617 29.5313 27.3438 28.0492 27.3438 26.25C27.3438 24.4508 25.8617 22.9688 24.0625 22.9688ZM14.2188 22.9688C12.4195 22.9688 10.9375 24.4508 10.9375 26.25C10.9375 28.0492 12.4195 29.5313 14.2188 29.5313C16.018 29.5313 17.5 28.0492 17.5 26.25C17.5 24.4508 16.018 22.9688 14.2188 22.9688ZM17.5 7.65625V13.125H14.2188L18.5938 17.5L22.9688 13.125H19.6875V7.65625H17.5ZM14.2188 25.1563C14.8356 25.1563 15.3125 25.6331 15.3125 26.25C15.3125 26.8669 14.8356 27.3438 14.2188 27.3438C13.6019 27.3438 13.125 26.8669 13.125 26.25C13.125 25.6331 13.6019 25.1563 14.2188 25.1563ZM24.0625 25.1563C24.6794 25.1563 25.1562 25.6331 25.1562 26.25C25.1562 26.8669 24.6794 27.3438 24.0625 27.3438C23.4456 27.3438 22.9688 26.8669 22.9688 26.25C22.9688 25.6331 23.4456 25.1563 24.0625 25.1563Z" fill="white"/>
</svg>
