<svg width="35" height="35" viewBox="0 0 35 35" fill="none" xmlns="http://www.w3.org/2000/svg">
<g clip-path="url(#clip0_59_16)">
<path d="M7.29167 7.29163H32.0833L29.1667 20.4166H10.2083L5.83333 2.91663H0L7.29167 7.29163ZM10.2083 20.4166L11.6667 26.25H30.625L10.2083 20.4166ZM27.7083 33.5416C27.3216 33.5416 26.9506 33.388 26.6771 33.1145C26.4036 32.841 26.25 32.4701 26.25 32.0833C26.25 31.6965 26.4036 31.3256 26.6771 31.0521C26.9506 30.7786 27.3216 30.625 27.7083 30.625C28.0951 30.625 28.466 30.7786 28.7395 31.0521C29.013 31.3256 29.1667 31.6965 29.1667 32.0833C29.1667 32.4701 29.013 32.841 28.7395 33.1145C28.466 33.388 28.0951 33.5416 27.7083 33.5416ZM13.125 33.5416C12.7382 33.5416 12.3673 33.388 12.0938 33.1145C11.8203 32.841 11.6667 32.4701 11.6667 32.0833C11.6667 31.6965 11.8203 31.3256 12.0938 31.0521C12.3673 30.7786 12.7382 30.625 13.125 30.625C13.5118 30.625 13.8827 30.7786 14.1562 31.0521C14.4297 31.3256 14.5833 31.6965 14.5833 32.0833C14.5833 32.4701 14.4297 32.841 14.1562 33.1145C13.8827 33.388 13.5118 33.5416 13.125 33.5416Z" stroke="#00BFA6" stroke-width="2.91667"/>
</g>
<defs>
<clipPath id="clip0_59_16">
<rect width="35" height="35" fill="white"/>
</clipPath>
</defs>
</svg>
