<svg width="35" height="35" viewBox="0 0 35 35" fill="none" xmlns="http://www.w3.org/2000/svg">
<path d="M33.3939 1.09375H31.8555V1.58375C29.7139 2.06281 29.4061 4.0507 29.2852 4.81031C29.2278 5.16961 29.1113 5.87234 28.9669 6.73313H2.18098C1.12113 6.73313 1.00246 7.72352 1.14082 8.27148L4.28316 22.1441C4.42098 22.692 5.00121 23.1394 5.56996 23.1394H29.055C29.6204 23.1394 30.0814 23.5993 30.0814 24.1648C30.0814 24.7302 29.6204 25.1902 29.055 25.1902H3.42074C3.14879 25.1902 2.88798 25.2982 2.69568 25.4905C2.50338 25.6828 2.39535 25.9436 2.39535 26.2155C2.39535 26.4875 2.50338 26.7483 2.69568 26.9406C2.88798 27.1329 3.14879 27.2409 3.42074 27.2409H4.74965C4.108 27.5952 3.5731 28.115 3.20067 28.7463C2.82824 29.3775 2.63191 30.0971 2.63215 30.8301H3.65754C3.65754 32.5281 5.03566 33.9062 6.73371 33.9062C8.43176 33.9062 9.80988 32.5281 9.80988 30.8301H10.8353C10.8354 30.0971 10.639 29.3775 10.2664 28.7462C9.89392 28.115 9.35894 27.5952 8.71723 27.2409H23.2061C22.5644 27.5952 22.0294 28.115 21.6569 28.7462C21.2844 29.3775 21.088 30.0971 21.0881 30.8301H22.1135C22.1287 31.636 22.4595 32.4038 23.0348 32.9684C23.6102 33.533 24.3841 33.8493 25.1902 33.8493C25.9963 33.8493 26.7702 33.533 27.3455 32.9684C27.9209 32.4038 28.2517 31.636 28.2669 30.8301H29.2923C29.2924 30.0972 29.096 29.3777 28.7236 28.7464C28.3511 28.1152 27.8163 27.5953 27.1748 27.2409H29.0561C29.8718 27.2405 30.654 26.9163 31.2308 26.3395C31.8076 25.7627 32.1318 24.9805 32.1322 24.1648C32.1322 23.7607 32.0525 23.3607 31.8978 22.9874C31.7431 22.6141 31.5164 22.275 31.2307 21.9894C30.9449 21.7037 30.6057 21.4771 30.2324 21.3226C29.8591 21.168 29.459 21.0885 29.055 21.0886H28.6738L29.9852 12.9347C30.3505 10.7811 31.138 6.12883 31.3229 4.97164C31.4158 4.38703 31.5061 3.97633 31.8555 3.74609V4.16938H33.3939C33.5295 4.16894 33.6595 4.11489 33.7555 4.01901C33.8515 3.92312 33.9057 3.79317 33.9063 3.6575V1.60672C33.906 1.47085 33.8519 1.34063 33.7559 1.24451C33.6599 1.14838 33.5297 1.09418 33.3939 1.09375V1.09375ZM6.73371 32.3684C6.32584 32.368 5.93481 32.2058 5.64641 31.9174C5.358 31.629 5.19579 31.2379 5.19535 30.8301H8.27152C8.27109 31.2378 8.10895 31.6288 7.82066 31.9172C7.53238 32.2056 7.14148 32.3679 6.73371 32.3684V32.3684ZM25.1907 32.3684C24.7828 32.3681 24.3916 32.206 24.1031 31.9176C23.8146 31.6292 23.6523 31.238 23.6518 30.8301H26.7291C26.7284 31.2379 26.5661 31.6287 26.2777 31.9171C25.9894 32.2054 25.5985 32.3677 25.1907 32.3684V32.3684ZM23.9291 9.29359C23.9471 9.1546 24.0145 9.02671 24.1189 8.93317C24.2232 8.83964 24.3577 8.78667 24.4979 8.78391H27.7446C28.0268 8.78391 28.2232 9.01141 28.1789 9.29086L27.8573 11.3531C27.8146 11.632 27.5472 11.8601 27.2645 11.8601H24.1675C24.1023 11.8618 24.0375 11.8494 23.9776 11.8237C23.9176 11.798 23.8639 11.7596 23.8202 11.7111C23.7765 11.6627 23.7438 11.6054 23.7244 11.5431C23.7049 11.4808 23.6992 11.4151 23.7076 11.3504L23.9291 9.29359V9.29359ZM23.3773 14.4205C23.3957 14.2817 23.4631 14.154 23.5674 14.0605C23.6717 13.967 23.806 13.914 23.9461 13.9109H26.9446C27.2273 13.9109 27.4231 14.1384 27.3804 14.4178L27.1382 15.9677C27.095 16.2466 26.8281 16.4746 26.5454 16.4746H23.6704C23.6053 16.4762 23.5405 16.4636 23.4807 16.4378C23.4208 16.4121 23.3672 16.3737 23.3235 16.3253C23.2799 16.2769 23.2472 16.2196 23.2277 16.1574C23.2082 16.0953 23.2023 16.0296 23.2105 15.9649L23.3773 14.4205V14.4205ZM3.75488 11.3624L3.23535 9.28156C3.16754 9.00703 3.34363 8.78391 3.62637 8.78391H7.48676C7.77004 8.78391 8.02543 9.01305 8.05551 9.29359L8.27644 11.3509C8.28464 11.4156 8.2788 11.4812 8.25933 11.5433C8.23985 11.6055 8.2072 11.6627 8.16359 11.7111C8.11998 11.7595 8.06645 11.7979 8.00665 11.8237C7.94685 11.8495 7.88219 11.8621 7.81707 11.8606H4.39309C4.1109 11.8606 3.82324 11.6359 3.75488 11.3624V11.3624ZM5.54371 16.4746C5.26152 16.4746 4.97387 16.2504 4.90605 15.977L4.51449 14.4091C4.44613 14.1345 4.62113 13.9114 4.90387 13.9114H8.03691C8.31965 13.9114 8.57559 14.1405 8.60566 14.4211L8.77191 15.9655C8.78021 16.0301 8.77443 16.0958 8.75499 16.158C8.73555 16.2201 8.7029 16.2774 8.65928 16.3258C8.61565 16.3742 8.56208 16.4126 8.50224 16.4384C8.44239 16.4642 8.37768 16.4767 8.31254 16.4752H5.54371V16.4746ZM8.80801 21.0891H6.69434C6.41051 21.0891 6.12449 20.8649 6.05613 20.5915L5.66457 19.0236C5.59676 18.7491 5.77176 18.5259 6.05504 18.5259H8.53238C8.81512 18.5259 9.07105 18.7551 9.10223 19.0356L9.26738 20.58C9.27568 20.6446 9.26991 20.7102 9.25047 20.7724C9.23102 20.8346 9.19836 20.8918 9.15473 20.9402C9.11109 20.9885 9.05752 21.0269 8.99767 21.0526C8.93782 21.0783 8.87312 21.0908 8.80801 21.0891V21.0891ZM15.0927 20.5762C15.0921 20.7122 15.0377 20.8425 14.9414 20.9386C14.8451 21.0348 14.7147 21.0889 14.5786 21.0891H11.9039C11.7638 21.0862 11.6295 21.0332 11.5252 20.9397C11.421 20.8462 11.3537 20.7184 11.3357 20.5795L11.1694 19.0351C11.1609 18.9705 11.1666 18.9048 11.1859 18.8425C11.2052 18.7803 11.2378 18.723 11.2814 18.6746C11.325 18.6261 11.3786 18.5877 11.4385 18.562C11.4984 18.5362 11.5631 18.5237 11.6282 18.5254H14.5786C14.7148 18.5254 14.8454 18.5794 14.9417 18.6756C15.0381 18.7717 15.0924 18.9022 15.0927 19.0384V20.5762V20.5762ZM15.0927 15.9622C15.0921 16.0982 15.0377 16.2286 14.9414 16.3247C14.8451 16.4208 14.7147 16.4749 14.5786 16.4752H11.4079C11.1257 16.4752 10.8708 16.246 10.8391 15.9655L10.6739 14.4211C10.6656 14.3565 10.6713 14.2908 10.6906 14.2286C10.71 14.1665 10.7426 14.1092 10.7862 14.0608C10.8298 14.0124 10.8833 13.9739 10.9431 13.9482C11.003 13.9224 11.0676 13.9098 11.1328 13.9114H14.5786C14.7148 13.9114 14.8454 13.9654 14.9417 14.0616C15.0381 14.1578 15.0924 14.2882 15.0927 14.4244V15.9622V15.9622ZM15.0927 11.3477C15.0921 11.4837 15.0377 11.614 14.9414 11.7101C14.8451 11.8062 14.7147 11.8603 14.5786 11.8606H10.9135C10.7733 11.8579 10.6389 11.8049 10.5345 11.7114C10.4301 11.6178 10.3628 11.4899 10.3447 11.3509L10.1238 9.29359C10.1155 9.22896 10.1213 9.1633 10.1407 9.10111C10.1602 9.03892 10.1928 8.98166 10.2364 8.93325C10.2801 8.88485 10.3336 8.84645 10.3935 8.82067C10.4533 8.79489 10.518 8.78235 10.5832 8.78391H14.5792C14.7153 8.78391 14.8459 8.83792 14.9423 8.93409C15.0387 9.03025 15.093 9.16073 15.0932 9.29688V11.3477H15.0927ZM20.6484 20.5795C20.6302 20.7184 20.5629 20.8462 20.4585 20.9397C20.3542 21.0333 20.2197 21.0863 20.0796 21.0891H17.6625C17.5265 21.0889 17.3961 21.0347 17.2999 20.9386C17.2036 20.8425 17.1494 20.7122 17.1489 20.5762V19.0378C17.1492 18.9018 17.2034 18.7714 17.2997 18.6752C17.396 18.5791 17.5264 18.525 17.6625 18.5248H20.3553C20.6375 18.5248 20.8453 18.754 20.8146 19.0345L20.6484 20.5795ZM21.1439 15.9649C21.1257 16.1039 21.0583 16.2317 20.954 16.3252C20.8496 16.4187 20.7152 16.4717 20.5751 16.4746H17.6625C17.5265 16.4743 17.3961 16.4202 17.2999 16.3241C17.2036 16.228 17.1494 16.0976 17.1489 15.9616V14.4233C17.1492 14.2872 17.2034 14.1568 17.2997 14.0607C17.396 13.9645 17.5264 13.9105 17.6625 13.9103H20.8507C21.1335 13.9103 21.3407 14.1395 21.3096 14.42L21.1439 15.9649ZM21.6393 11.3509C21.6212 11.4899 21.5538 11.6177 21.4495 11.7112C21.3451 11.8047 21.2107 11.8578 21.0706 11.8606H17.6625C17.5265 11.8603 17.3961 11.8062 17.2999 11.7101C17.2036 11.614 17.1494 11.4837 17.1489 11.3477V9.29688C17.1492 9.16082 17.2034 9.03043 17.2997 8.93428C17.396 8.83812 17.5264 8.78405 17.6625 8.78391H21.4014C21.6842 8.78391 21.8914 9.01305 21.8614 9.29359L21.6393 11.3509V11.3509ZM25.5943 21.0891V21.0853L25.59 21.0891H23.175C23.1591 21.0891 23.1454 21.0815 23.1296 21.0793C23.1268 21.0607 23.1268 21.0421 23.1236 21.0224L23.0995 21.0727C23.1062 21.0745 23.1129 21.076 23.1197 21.0771C22.8676 21.0481 22.6871 20.8398 22.7161 20.5795L22.8813 19.0351C22.8997 18.8962 22.9671 18.7685 23.0714 18.675C23.1757 18.5816 23.31 18.5285 23.45 18.5254H26.226C26.5087 18.5254 26.7034 18.7529 26.6607 19.0323L26.4185 20.5822C26.3764 20.8611 26.1095 21.0891 25.8268 21.0891H25.5943" fill="#00BFA6"/>
</svg>
