<svg width="35" height="35" viewBox="0 0 35 35" fill="none" xmlns="http://www.w3.org/2000/svg">
<path fill-rule="evenodd" clip-rule="evenodd" d="M10.2083 2.91666C8.27447 2.91666 6.4198 3.68489 5.05235 5.05234C3.6849 6.4198 2.91667 8.27446 2.91667 10.2083V24.7917C2.91667 26.7255 3.6849 28.5802 5.05235 29.9477C6.4198 31.3151 8.27447 32.0833 10.2083 32.0833H24.7917C26.7255 32.0833 28.5802 31.3151 29.9477 29.9477C31.3151 28.5802 32.0833 26.7255 32.0833 24.7917V10.2083C32.0833 8.27446 31.3151 6.4198 29.9477 5.05234C28.5802 3.68489 26.7255 2.91666 24.7917 2.91666H10.2083ZM22.9396 15.5808C23.0706 15.441 23.1728 15.2768 23.2403 15.0975C23.3078 14.9182 23.3393 14.7274 23.3331 14.5359C23.3269 14.3444 23.283 14.156 23.204 13.9815C23.1249 13.807 23.0123 13.6497 22.8725 13.5187C22.7327 13.3878 22.5685 13.2856 22.3892 13.2181C22.2099 13.1505 22.0191 13.119 21.8276 13.1252C21.6361 13.1314 21.4477 13.1753 21.2732 13.2544C21.0987 13.3334 20.9414 13.446 20.8104 13.5858L16.3144 18.3837L14.0933 16.4106C13.8023 16.1687 13.4287 16.0494 13.0514 16.0779C12.674 16.1063 12.3225 16.2804 12.0711 16.5632C11.8197 16.846 11.6881 17.2155 11.704 17.5936C11.72 17.9717 11.8823 18.3287 12.1567 18.5894L15.4379 21.506C15.7218 21.7582 16.0929 21.8897 16.4723 21.8726C16.8517 21.8554 17.2094 21.691 17.4694 21.4142L22.9381 15.5808H22.9396Z" fill="#00BFA6"/>
</svg>
