<svg width="35" height="35" viewBox="0 0 35 35" fill="none" xmlns="http://www.w3.org/2000/svg">
<path d="M25.564 21.301C25.564 22.771 25.9823 23.3572 27.076 23.3572C29.5138 23.3572 31.066 20.251 31.066 15.085C31.066 7.18899 25.312 3.40899 18.1283 3.40899C10.738 3.40899 4.01628 8.36499 4.01628 17.731C4.01628 26.677 9.89628 31.549 18.9263 31.549C21.9923 31.549 24.0503 31.213 27.1985 30.163L27.874 32.9752C24.766 33.985 21.4445 34.2772 18.8843 34.2772C7.04028 34.2772 0.696533 27.7672 0.696533 17.7292C0.696533 7.60724 8.04828 0.719238 18.1703 0.719238C28.7123 0.719238 34.2965 7.01924 34.2965 14.7472C34.2965 21.2992 32.2403 26.2972 25.7723 26.2972C22.8305 26.2972 20.9003 25.1212 20.6483 22.5155C19.8923 25.4135 17.8763 26.2972 15.1445 26.2972C11.4905 26.2972 8.42453 23.4815 8.42453 17.8132C8.42453 12.1012 11.1143 8.57324 15.9443 8.57324C18.5063 8.57324 20.1023 9.58124 20.8128 11.1772L22.0325 8.95124H25.5605V21.301H25.564V21.301ZM20.3998 15.757C20.3998 13.4487 18.676 12.481 17.248 12.481C15.694 12.481 13.9738 13.7392 13.9738 17.437C13.9738 20.377 15.2758 22.015 17.248 22.015C18.634 22.015 20.3998 21.133 20.3998 18.697V15.757Z" fill="white"/>
</svg>
