<svg width="35" height="35" viewBox="0 0 35 35" fill="none" xmlns="http://www.w3.org/2000/svg">
<path d="M30.625 4.375H7.29171C6.90493 4.375 6.534 4.52865 6.26051 4.80214C5.98702 5.07563 5.83337 5.44656 5.83337 5.83333V9.61042C5.83337 10.3731 6.144 11.1227 6.68358 11.6623L14.5834 19.5621V30.625C14.5837 30.8735 14.6474 31.1177 14.7684 31.3347C14.8895 31.5517 15.064 31.7341 15.2753 31.8648C15.4866 31.9955 15.7277 32.0701 15.9759 32.0816C16.2241 32.093 16.4711 32.0409 16.6936 31.9302L22.5269 29.0135C23.0213 28.7656 23.3334 28.261 23.3334 27.7083V19.5621L31.2332 11.6623C31.7727 11.1227 32.0834 10.3731 32.0834 9.61042V5.83333C32.0834 5.44656 31.9297 5.07563 31.6562 4.80214C31.3827 4.52865 31.0118 4.375 30.625 4.375V4.375ZM20.844 17.9273C20.7083 18.0625 20.6007 18.2232 20.5274 18.4001C20.454 18.5771 20.4164 18.7668 20.4167 18.9583V26.8071L17.5 28.2654V18.9583C17.5003 18.7668 17.4627 18.5771 17.3894 18.4001C17.316 18.2232 17.2084 18.0625 17.0727 17.9273L8.75004 9.61042V7.29167H29.1682L29.1711 9.60021L20.844 17.9273V17.9273Z" fill="#00BFA6"/>
</svg>
