<svg width="35" height="35" viewBox="0 0 35 35" fill="none" xmlns="http://www.w3.org/2000/svg">
<path d="M24.7916 19.148V24.5394H21.6664V19.5082C21.6664 18.2452 21.2143 17.3834 20.0826 17.3834C19.2193 17.3834 18.7045 17.9638 18.4785 18.5267C18.3968 18.728 18.3749 19.008 18.3749 19.288V24.5394H15.2483C15.2483 24.5394 15.2905 16.0198 15.2483 15.1375H18.3749V16.469L18.3545 16.4996H18.3749V16.4705C18.7905 15.8288 19.5314 14.9159 21.1924 14.9159C23.2487 14.9159 24.7916 16.2605 24.7916 19.148V19.148ZM11.9772 10.6036C10.9083 10.6036 10.2083 11.3065 10.2083 12.2282C10.2083 13.1323 10.8878 13.8542 11.9364 13.8542H11.9568C13.0476 13.8542 13.7258 13.1309 13.7258 12.2282C13.7053 11.3065 13.0476 10.6036 11.9772 10.6036ZM10.3935 24.5394H13.5201V15.1375H10.3935V24.5394V24.5394Z" fill="white"/>
<path d="M17.5 29.1667C20.5942 29.1667 23.5616 27.9375 25.7495 25.7496C27.9375 23.5617 29.1666 20.5942 29.1666 17.5C29.1666 14.4058 27.9375 11.4384 25.7495 9.25044C23.5616 7.06252 20.5942 5.83335 17.5 5.83335C14.4058 5.83335 11.4383 7.06252 9.25038 9.25044C7.06246 11.4384 5.83329 14.4058 5.83329 17.5C5.83329 20.5942 7.06246 23.5617 9.25038 25.7496C11.4383 27.9375 14.4058 29.1667 17.5 29.1667V29.1667ZM17.5 32.0834C9.44558 32.0834 2.91663 25.5544 2.91663 17.5C2.91663 9.44565 9.44558 2.91669 17.5 2.91669C25.5543 2.91669 32.0833 9.44565 32.0833 17.5C32.0833 25.5544 25.5543 32.0834 17.5 32.0834Z" fill="white"/>
</svg>
