<svg width="35" height="35" viewBox="0 0 35 35" fill="none" xmlns="http://www.w3.org/2000/svg">
<path d="M12.6977 28.7394L26.25 15.1871L19.8129 8.74999L6.26063 22.3023C6.07405 22.4891 5.94152 22.7229 5.87708 22.9789L4.375 30.625L12.0196 29.1229C12.2762 29.0587 12.511 28.926 12.6977 28.7394V28.7394ZM30.625 10.8121C31.1718 10.2651 31.479 9.52338 31.479 8.74999C31.479 7.97659 31.1718 7.23486 30.625 6.6879L28.3121 4.37499C27.7651 3.8282 27.0234 3.52103 26.25 3.52103C25.4766 3.52103 24.7349 3.8282 24.1879 4.37499L21.875 6.6879L28.3121 13.125L30.625 10.8121Z" fill="#00BFA6"/>
</svg>
