<svg width="35" height="35" viewBox="0 0 35 35" fill="none" xmlns="http://www.w3.org/2000/svg">
<path fill-rule="evenodd" clip-rule="evenodd" d="M11.326 5.00733C11.4346 5.11571 11.5208 5.24445 11.5797 5.38619C11.6385 5.52793 11.6688 5.67988 11.6688 5.83333C11.6688 5.98679 11.6385 6.13874 11.5797 6.28048C11.5208 6.42222 11.4346 6.55096 11.326 6.65933L8.64967 9.33333H21C23.7848 9.33333 26.4555 10.4396 28.4246 12.4087C30.3938 14.3778 31.5 17.0486 31.5 19.8333C31.5 22.6181 30.3938 25.2888 28.4246 27.258C26.4555 29.2271 23.7848 30.3333 21 30.3333H11.6667C11.3572 30.3333 11.0605 30.2104 10.8417 29.9916C10.6229 29.7728 10.5 29.4761 10.5 29.1667C10.5 28.8572 10.6229 28.5605 10.8417 28.3417C11.0605 28.1229 11.3572 28 11.6667 28H21C23.1659 28 25.2432 27.1396 26.7747 25.608C28.3063 24.0765 29.1667 21.9993 29.1667 19.8333C29.1667 17.6674 28.3063 15.5902 26.7747 14.0586C25.2432 12.5271 23.1659 11.6667 21 11.6667H8.64967L11.326 14.3407C11.4345 14.4491 11.5205 14.5779 11.5792 14.7196C11.6379 14.8614 11.6681 15.0133 11.6681 15.1667C11.6681 15.3201 11.6379 15.472 11.5792 15.6137C11.5205 15.7554 11.4345 15.8842 11.326 15.9927C11.2175 16.1011 11.0888 16.1872 10.947 16.2459C10.8053 16.3046 10.6534 16.3348 10.5 16.3348C10.3466 16.3348 10.1947 16.3046 10.053 16.2459C9.91125 16.1872 9.78247 16.1011 9.674 15.9927L5.00733 11.326C4.89869 11.2176 4.81249 11.0889 4.75367 10.9471C4.69486 10.8054 4.66458 10.6535 4.66458 10.5C4.66458 10.3465 4.69486 10.1946 4.75367 10.0529C4.81249 9.91112 4.89869 9.78237 5.00733 9.674L9.674 5.00733C9.78237 4.89869 9.91112 4.81249 10.0529 4.75367C10.1946 4.69486 10.3465 4.66458 10.5 4.66458C10.6535 4.66458 10.8054 4.69486 10.9471 4.75367C11.0889 4.81249 11.2176 4.89869 11.326 5.00733Z" fill="#00BFA6"/>
</svg>
