<svg width="35" height="35" viewBox="0 0 35 35" fill="none" xmlns="http://www.w3.org/2000/svg">
<path d="M23.8583 20.4167C23.975 19.4542 24.0625 18.4917 24.0625 17.5C24.0625 16.5084 23.975 15.5459 23.8583 14.5834H28.7875C29.0208 15.5167 29.1666 16.4938 29.1666 17.5C29.1666 18.5063 29.0208 19.4834 28.7875 20.4167H23.8583ZM21.277 28.525C22.152 26.9063 22.8229 25.1563 23.2895 23.3334H27.5916C26.1787 25.7663 23.9372 27.6092 21.277 28.525V28.525ZM20.9125 20.4167H14.0875C13.9416 19.4542 13.8541 18.4917 13.8541 17.5C13.8541 16.5084 13.9416 15.5313 14.0875 14.5834H20.9125C21.0437 15.5313 21.1458 16.5084 21.1458 17.5C21.1458 18.4917 21.0437 19.4542 20.9125 20.4167ZM17.5 29.1084C16.2895 27.3584 15.3125 25.4188 14.7145 23.3334H20.2854C19.6875 25.4188 18.7104 27.3584 17.5 29.1084ZM11.6666 11.6667H7.40829C8.80662 9.22721 11.0465 7.38135 13.7083 6.47502C12.8333 8.09377 12.177 9.84377 11.6666 11.6667ZM7.40829 23.3334H11.6666C12.177 25.1563 12.8333 26.9063 13.7083 28.525C11.0521 27.6087 8.81536 25.7654 7.40829 23.3334V23.3334ZM6.21246 20.4167C5.97913 19.4834 5.83329 18.5063 5.83329 17.5C5.83329 16.4938 5.97913 15.5167 6.21246 14.5834H11.1416C11.025 15.5459 10.9375 16.5084 10.9375 17.5C10.9375 18.4917 11.025 19.4542 11.1416 20.4167H6.21246ZM17.5 5.8771C18.7104 7.6271 19.6875 9.58127 20.2854 11.6667H14.7145C15.3125 9.58127 16.2895 7.6271 17.5 5.8771V5.8771ZM27.5916 11.6667H23.2895C22.8331 9.86048 22.1573 8.11695 21.277 6.47502C23.9604 7.39377 26.1916 9.24585 27.5916 11.6667ZM17.5 2.91669C9.43538 2.91669 2.91663 9.47919 2.91663 17.5C2.91663 21.3678 4.45308 25.0771 7.18799 27.812C8.54217 29.1662 10.1498 30.2404 11.9192 30.9733C13.6885 31.7061 15.5848 32.0834 17.5 32.0834C21.3677 32.0834 25.077 30.5469 27.8119 27.812C30.5468 25.0771 32.0833 21.3678 32.0833 17.5C32.0833 15.5849 31.7061 13.6886 30.9732 11.9192C30.2403 10.1499 29.1661 8.54223 27.8119 7.18805C26.4577 5.83386 24.8501 4.75966 23.0808 4.02678C21.3114 3.2939 19.4151 2.91669 17.5 2.91669V2.91669Z" fill="white"/>
</svg>
